<svg width="240.000000" height="83.000000" viewBox="0 0 240 83" fill="none" xmlns="http://www.w3.org/2000/svg" xmlns:xlink="http://www.w3.org/1999/xlink">
	<desc>
			Created with Pixso.
	</desc>
	<defs/>
	<path id="&amp;" d="M154.15 82.3Q154.53 82.01 154.53 81.73Q154.53 81.44 153.87 81.06Q143.33 76.57 134.75 69.65Q133.87 68.94 133 68.2C136.69 64.96 139.67 61.41 141.96 57.53Q144.81 52.75 145.36 47.72Q145.49 46.54 145.49 45.34C145.49 44.83 145.42 44.16 145.29 43.34C145.23 42.45 145.04 41.59 144.72 40.77C144.47 39.94 144.06 39.24 143.48 38.67C142.98 38.04 142.28 37.72 141.39 37.72C141.07 37.72 140.72 37.81 140.34 38C139.96 38.13 139.77 38.26 139.77 38.39C140.78 39.85 141.45 41.24 141.77 42.58C142.15 43.85 142.34 45.12 142.34 46.39C142.34 50.2 141.36 53.85 139.39 57.34C137.42 60.83 134.82 64.04 131.58 66.96Q122.62 59.25 116.34 50.39Q110.14 41.43 107 32.76Q109.86 29.72 112.43 26.86Q115.1 23.91 117 21.24Q119 18.48 120.15 15.9Q121.38 13.33 121.38 10.95C121.38 8.41 120.69 6.6 119.29 5.52C117.89 4.38 116.34 3.81 114.62 3.81C113.16 3.81 111.6 4.22 109.95 5.04Q107.57 6.19 105.57 8.28Q103.57 10.38 102.24 13.33C101.41 15.3 101 17.46 101 19.81Q101 25.81 103.76 33.24L96.14 40.86C93.6 43.47 91.28 46.13 89.19 48.86Q86.04 52.96 84.04 57.25Q82.45 60.57 82.13 64.02Q82.04 64.91 82.04 65.82Q82.04 69.92 83.47 72.96C84.36 75 85.6 76.71 87.19 78.11Q87.26 78.17 87.33 78.23Q89.66 80.14 92.81 81.06Q96.04 82.11 99.66 82.11Q103.38 82.11 107.38 81.25Q111.48 80.4 115.48 78.78Q119.57 77.16 123.48 74.87C126.08 73.35 128.59 71.66 131 69.82C134.5 72.74 138.09 75.31 141.77 77.54Q147.3 80.78 153.01 82.59Q153.77 82.59 154.15 82.3ZM116.34 7.43C117.35 8.38 117.86 9.97 117.86 12.19C117.86 13.65 117.54 15.14 116.91 16.67Q116.05 18.86 114.43 21.24Q112.91 23.52 110.81 25.91C109.41 27.49 107.92 29.11 106.33 30.76Q104.33 24.67 104.33 19.24C104.33 17.27 104.62 15.46 105.19 13.81Q106.05 11.33 107.29 9.62Q108.62 7.81 110.14 6.85Q111.76 5.9 113.19 5.9C114.33 5.9 115.38 6.41 116.34 7.43ZM121.77 61.15C124.31 63.82 126.94 66.33 129.67 68.68C125.67 71.98 121.32 74.62 116.62 76.58Q109.57 79.54 103.28 79.54Q100.84 79.54 98.52 79.02Q97.85 78.87 97.19 78.68Q95.14 78.09 93.41 76.99Q92.65 76.5 91.95 75.92C90.42 74.65 89.22 73.03 88.33 71.06Q86.9 68.01 86.9 63.82L86.9 63.82Q86.9 60.3 88.52 56.77Q90.04 53.15 92.52 49.63Q95 46.01 98.14 42.48Q101.38 38.86 104.62 35.34Q106.43 39.62 109 44.1Q111.67 48.48 114.81 52.77Q118.05 57.06 121.77 61.15Z" fill="#FFA55C" fill-opacity="1.000000" fill-rule="evenodd"/>
	<path id="Wake Bake" d="M38.16 26.32C38.28 26.22 38.35 26.09 38.35 25.93C38.35 25.74 38.24 25.55 38.01 25.36C37.79 25.13 37.56 25.02 37.34 25.02C36.57 25.02 35.84 25.44 35.13 26.27C34.46 27.07 33.85 28.06 33.31 29.24C32.8 30.4 32.38 31.63 32.06 32.94C31.77 34.25 31.63 35.4 31.63 36.4C31.63 37.77 31.68 39.28 31.77 40.91C31.9 42.51 32.03 44.17 32.16 45.9C32.28 47.6 32.4 49.31 32.49 51.04C32.62 52.76 32.68 54.44 32.68 56.08C32.68 57.9 32.59 59.61 32.4 61.21C32.2 62.78 31.85 64.17 31.34 65.39C30.83 66.57 30.12 67.5 29.23 68.17C28.33 68.87 27.18 69.23 25.77 69.23Q24.5 69.23 23.4 68.8Q23.17 68.71 22.94 68.6C22.11 68.22 21.34 67.68 20.64 66.97C19.96 66.27 19.36 65.45 18.81 64.52C18.27 63.56 17.79 62.52 17.37 61.4C17.98 59.2 18.43 56.94 18.71 54.64C19 52.3 19.15 50.08 19.15 47.96Q19.15 46 18.95 44.32C18.86 43.16 18.7 42.17 18.48 41.34C18.28 40.51 18.03 39.85 17.71 39.37C17.42 38.89 17.08 38.65 16.7 38.65C16.22 38.65 15.8 38.99 15.45 39.66C15.1 40.33 14.81 41.21 14.59 42.3C14.36 43.39 14.19 44.62 14.06 46C13.96 47.37 13.92 48.76 13.92 50.17Q13.92 53.05 14.44 56.46C14.8 58.73 15.34 60.88 16.08 62.89C15.72 63.98 15.32 64.99 14.88 65.92C14.46 66.84 13.98 67.64 13.44 68.32C12.89 69.02 12.3 69.56 11.66 69.95C11.02 70.33 10.32 70.52 9.55 70.52C8.52 70.52 7.63 70.24 6.86 69.66Q5.71 68.84 4.84 67.45C4.3 66.52 3.84 65.45 3.45 64.24C3.07 63.02 2.76 61.77 2.54 60.49Q2.2 58.52 2.06 56.56Q1.92 54.54 1.92 52.86Q1.92 50.7 2.01 48.44Q2.11 46.14 2.25 44.12C2.38 42.78 2.51 41.58 2.64 40.52C2.8 39.43 2.94 38.6 3.07 38.03C3.39 36.75 3.63 35.88 3.79 35.43C3.95 34.96 4.03 34.62 4.03 34.43C4.03 34.27 3.95 34.17 3.79 34.14C3.63 34.08 3.44 34.04 3.21 34.04C2.92 34.04 2.59 34.08 2.2 34.14C1.85 34.2 1.66 34.33 1.63 34.52C1.56 35.04 1.44 35.82 1.24 36.88Q0.96 38.46 0.67 40.67Q0.38 42.83 0.14 45.56Q-0.05 48.25 0.04 51.28Q0.09 52.96 0.14 55.16Q0.24 57.32 0.48 59.63Q0.68 61.54 1.05 63.41Q1.12 63.75 1.2 64.09Q1.72 66.25 2.64 67.93C3.24 69.08 4.01 70.01 4.94 70.72C5.9 71.42 7.07 71.77 8.44 71.77C9.34 71.77 10.19 71.58 10.99 71.19C11.79 70.81 12.52 70.27 13.2 69.56C13.87 68.86 14.48 68.03 15.02 67.07C15.6 66.11 16.09 65.07 16.51 63.95C16.92 64.91 17.39 65.79 17.9 66.59C18.44 67.39 19.04 68.09 19.68 68.7C20.35 69.31 21.07 69.77 21.84 70.09C22.64 70.44 23.48 70.62 24.38 70.62C26.33 70.62 27.92 70.16 29.13 69.23C30.35 68.3 31.29 67.07 31.96 65.53C32.67 64 33.13 62.25 33.36 60.3C33.61 58.35 33.74 56.33 33.74 54.25C33.74 52.78 33.69 51.34 33.59 49.93C33.53 48.49 33.43 47.13 33.31 45.85C33.21 44.57 33.12 43.4 33.02 42.35C32.96 41.26 32.92 40.35 32.92 39.61C32.92 38.56 32.99 37.4 33.12 36.16C33.24 34.88 33.48 33.63 33.84 32.41C34.22 31.2 34.72 30.08 35.32 29.05C35.93 28.03 36.72 27.23 37.68 26.65Q37.96 26.46 38.16 26.32ZM163.46 57.95C164.35 56.12 164.8 54.43 164.8 52.86C164.8 51.8 164.58 50.83 164.13 49.93C163.71 49 163.04 48.2 162.11 47.53Q160.72 46.48 158.51 45.85C157.04 45.4 155.28 45.13 153.23 45.04Q155.39 42.88 156.64 40.38C157.51 38.68 157.94 37.05 157.94 35.48C157.94 34.52 157.75 33.61 157.36 32.75C156.98 31.88 156.35 31.15 155.49 30.54C154.63 29.9 153.51 29.4 152.13 29.05C150.79 28.67 149.14 28.48 147.19 28.48Q145.17 28.48 142 28.96C139.92 29.24 137.67 29.71 135.23 30.35C132.83 30.96 130.4 31.74 127.94 32.7C125.47 33.66 123.22 34.81 121.17 36.16C119.09 37.47 117.35 38.97 115.94 40.67Q114.54 42.35 113.88 44.28Q113.54 45.27 113.39 46.33C113.39 46.97 113.44 47.44 113.54 47.72C113.6 47.98 113.7 48.11 113.83 48.11Q113.97 48.11 114.11 47.87C114.21 47.68 114.26 47.45 114.26 47.2C114.26 45.18 114.88 43.34 116.13 41.68C117.38 40.01 118.99 38.52 120.98 37.21C122.96 35.9 125.17 34.75 127.6 33.75C130.03 32.76 132.42 31.95 134.75 31.31C137.12 30.64 139.31 30.14 141.33 29.82C143.38 29.5 144.98 29.34 146.13 29.34Q148.67 29.34 150.45 29.92C151.67 30.3 152.64 30.81 153.38 31.45C154.15 32.09 154.69 32.86 155.01 33.75C155.36 34.62 155.54 35.53 155.54 36.49C155.54 37.93 155.22 39.4 154.58 40.91C153.94 42.38 153.09 43.74 152.03 44.99L151.46 44.99C149.89 44.99 148.45 45.15 147.14 45.47C145.83 45.76 144.69 46.12 143.73 46.57C142.8 47.02 142.07 47.5 141.52 48.01C141.01 48.49 140.75 48.92 140.75 49.31C140.75 49.92 141.38 50.22 142.63 50.22C144.39 50.22 146.11 49.8 147.81 48.97C149.54 48.14 151.12 47.05 152.56 45.71C156.11 45.9 158.66 46.64 160.19 47.92Q161.56 49 162.13 50.4Q162.55 51.43 162.55 52.62C162.55 54.16 162.11 55.82 161.25 57.61C160.39 59.37 159.2 61.15 157.7 62.94C156.19 64.7 154.43 66.4 152.42 68.03C150.43 69.69 148.31 71.15 146.03 72.4C143.79 73.68 141.47 74.7 139.07 75.47C136.71 76.24 134.39 76.62 132.11 76.62C131.83 76.62 131.49 76.59 131.11 76.52C130.72 76.49 130.35 76.41 130 76.28C129.65 76.16 129.35 75.98 129.09 75.76C128.87 75.56 128.75 75.29 128.75 74.94C128.75 74.43 129.19 73.87 130.05 73.26C130.91 72.68 131.95 72.16 133.17 71.68C134.39 71.19 135.63 70.8 136.91 70.48C138.19 70.16 139.25 70 140.08 70L140.71 70C140.87 70 140.95 69.92 140.95 69.76C140.95 69.66 140.9 69.56 140.8 69.47Q140.66 69.32 140.37 69.32Q139.99 69.32 138.88 69.51Q137.78 69.76 136.29 70.14C135.33 70.4 134.32 70.7 133.27 71.05C132.21 71.4 131.23 71.8 130.34 72.25C129.44 72.7 128.71 73.18 128.13 73.69C127.55 74.24 127.27 74.8 127.27 75.37C127.27 75.79 127.43 76.11 127.75 76.33C128.07 76.59 128.45 76.76 128.9 76.86C129.35 76.99 129.83 77.07 130.34 77.1C130.88 77.13 131.38 77.15 131.83 77.15C134.51 77.15 137.2 76.76 139.89 76C142.58 75.26 145.14 74.25 147.57 72.97C150 71.69 152.27 70.22 154.39 68.56Q157.55 66.06 159.86 63.37Q162.16 60.68 163.46 57.95ZM89.35 59.78C89.18 60.1 88.98 60.4 88.75 60.68Q86.11 64.43 82.75 66.59C80.51 68 78.29 68.7 76.08 68.7C74.71 68.7 73.39 68.38 72.15 67.74C70.9 67.13 69.79 66.14 68.83 64.76C68.71 64.6 68.64 64.46 68.64 64.33C68.64 64.04 68.83 63.9 69.22 63.9C69.25 63.9 69.36 63.93 69.55 64C69.81 64 70.1 64.09 70.42 64.28C70.77 64.44 71.27 64.52 71.91 64.52C72.9 64.52 73.83 64.35 74.69 64C75.55 63.64 76.29 63.2 76.9 62.65C77.54 62.08 78.03 61.44 78.39 60.73C78.74 60 78.91 59.24 78.91 58.48C78.91 57.52 78.66 56.68 78.15 55.98C77.67 55.28 76.83 54.92 75.65 54.92C74.43 54.92 73.31 55.36 72.29 56.22Q70.75 57.47 69.51 59.29C68.71 60.48 68.02 61.74 67.44 63.08Q66.58 65.05 66.15 66.54C65.99 67.08 65.84 67.42 65.71 67.55C65.59 67.68 65.44 67.74 65.28 67.74C64.93 67.74 64.77 67.4 64.8 66.73C64.8 66.44 64.82 66.09 64.85 65.68C64.88 65.26 64.91 64.81 64.95 64.33C64.95 63.85 64.96 63.37 64.99 62.89C65.03 62.38 65.04 61.92 65.04 61.5C65.04 61.08 65.04 60.64 65.03 60.18C64.93 60.35 64.82 60.52 64.71 60.68C63.08 63.12 61.43 64.92 59.77 66.11C58.1 67.29 56.55 67.88 55.11 67.88C53.29 67.88 51.89 67.02 50.93 65.29C49.81 66.41 48.55 67.26 47.14 67.83C45.77 68.41 44.41 68.7 43.06 68.7C42.26 68.7 41.49 68.59 40.76 68.36C40.05 68.14 39.45 67.8 38.93 67.36C38.39 66.87 37.96 66.28 37.64 65.58C37.32 64.84 37.16 64 37.16 63.04C37.16 61.88 37.43 60.72 37.97 59.53C38.49 58.32 39.21 57.23 40.13 56.27C41.09 55.28 42.21 54.46 43.49 53.82Q44.01 53.56 44.54 53.37Q46.02 52.86 47.67 52.86C48.89 52.86 49.83 53.04 50.5 53.39C51.17 53.71 51.51 54.01 51.51 54.3C51.51 54.43 51.45 54.52 51.32 54.59C51.19 54.65 51.08 54.68 50.98 54.68C50.95 54.65 50.92 54.64 50.89 54.64L50.84 54.64C50.45 54.28 50.02 54.01 49.54 53.82C49.06 53.6 48.36 53.48 47.43 53.48C46.18 53.48 45.05 53.76 44.02 54.3C43.03 54.81 42.18 55.5 41.48 56.36C40.77 57.2 40.23 58.12 39.85 59.15C39.46 60.17 39.27 61.18 39.27 62.17C39.27 64.09 39.72 65.48 40.61 66.35C41.51 67.21 42.63 67.64 43.97 67.64C45.06 67.64 46.2 67.37 47.38 66.83C48.57 66.28 49.62 65.51 50.55 64.52C50.04 63.37 49.78 61.87 49.78 60.01Q49.78 58.19 50.45 56.84C50.9 55.95 51.54 55.5 52.37 55.5C53.53 55.5 54.1 56.17 54.1 57.52Q54.1 59.53 53.53 61.16C53.14 62.22 52.63 63.18 51.99 64.04C52.89 65.71 54.13 66.54 55.73 66.54C56.95 66.54 58.25 66.03 59.62 65C61.03 63.98 62.41 62.49 63.75 60.54Q64.23 59.82 64.61 59.05L64.61 59.05L65 58.28C64.98 57.73 64.97 57.15 64.95 56.56Q64.85 53.72 64.71 50.75C64.61 48.73 64.53 46.73 64.47 44.75C64.4 42.76 64.37 40.94 64.37 39.28Q64.37 37.31 64.66 35.48Q64.95 33.61 65.57 32.22C65.99 31.26 66.51 30.51 67.15 29.96C67.79 29.39 68.55 29.1 69.41 29.1C70.31 29.1 71.06 29.26 71.67 29.58C72.31 29.87 72.82 30.3 73.2 30.88C73.59 31.42 73.86 32.09 74.02 32.89C74.21 33.66 74.31 34.51 74.31 35.43C74.31 37.04 74.08 38.8 73.63 40.72C73.19 42.6 72.59 44.51 71.86 46.43Q70.75 49.31 69.31 52Q67.92 54.64 66.43 56.6C66.5 57.56 66.53 58.56 66.53 59.58C66.56 60.6 66.61 61.69 66.67 62.84C67.47 61.12 68.35 59.63 69.31 58.38C69.73 57.84 70.19 57.31 70.71 56.8C71.25 56.25 71.81 55.77 72.39 55.36C72.99 54.94 73.63 54.6 74.31 54.35C75.01 54.09 75.75 53.96 76.51 53.96C77.73 53.96 78.79 54.27 79.68 54.88C80.58 55.48 81.03 56.46 81.03 57.8C81.03 59.08 80.71 60.17 80.07 61.07C79.46 61.96 78.69 62.72 77.76 63.32C76.83 63.9 75.84 64.33 74.79 64.62C73.73 64.91 72.77 65.08 71.91 65.15C71.84 65.15 71.81 65.16 71.81 65.19C71.81 65.26 71.86 65.36 71.95 65.48Q72.91 66.59 74.11 67.07Q74.69 67.3 75.29 67.42Q75.94 67.55 76.61 67.55C77.67 67.55 78.74 67.36 79.83 66.97Q80.14 66.85 80.44 66.72Q81.74 66.17 82.95 65.39C83.94 64.72 84.85 63.96 85.68 63.13C86.55 62.27 87.25 61.4 87.79 60.54C88.11 60.06 88.4 59.56 88.66 59.05L89.43 57.52L89.44 57.52C89.51 57.04 89.62 56.56 89.76 56.08C90.05 55.12 90.43 54.25 90.91 53.48C91.42 52.72 92 52.09 92.64 51.61C93.31 51.13 94.02 50.89 94.75 50.89C95.94 50.89 96.8 51.24 97.34 51.95C97.89 52.62 98.16 53.48 98.16 54.54C98.16 55.98 97.71 57.55 96.82 59.24C95.95 60.91 94.7 62.46 93.07 63.9Q93.86 64.8 94.86 65.3Q96.15 65.96 97.78 65.96C99.22 65.96 100.72 65.53 102.29 64.67Q104.64 63.32 106.71 60.54C107.06 60.09 107.35 59.61 107.57 59.1C107.83 58.56 108.08 58.03 108.34 57.52L109.25 57.76C109.03 58.24 108.79 58.73 108.53 59.24C108.31 59.72 108.02 60.2 107.67 60.68C106.1 62.92 104.31 64.62 102.29 65.77C100.31 66.89 98.4 67.45 96.58 67.45C95.55 67.45 94.59 67.28 93.7 66.92C92.83 66.57 92.08 66.04 91.44 65.34C90.8 64.64 90.29 63.76 89.9 62.7C89.6 61.85 89.41 60.88 89.35 59.78ZM219.48 59.78C219.3 60.1 219.1 60.4 218.88 60.68Q216.24 64.43 212.88 66.59C210.64 68 208.42 68.7 206.21 68.7C204.83 68.7 203.52 68.38 202.27 67.74Q200.4 66.83 198.96 64.76C198.83 64.6 198.77 64.46 198.77 64.33C198.77 64.04 198.96 63.9 199.34 63.9C199.38 63.9 199.49 63.93 199.68 64C199.94 64 200.22 64.09 200.54 64.28C200.9 64.44 201.39 64.52 202.03 64.52C203.02 64.52 203.95 64.35 204.82 64C205.68 63.64 206.42 63.2 207.02 62.65C207.66 62.08 208.16 61.44 208.51 60.73C208.86 60 209.04 59.24 209.04 58.48Q209.04 57.4 208.61 56.53Q208.46 56.24 208.27 55.98C207.79 55.28 206.96 54.92 205.78 54.92C204.56 54.92 203.44 55.36 202.42 56.22C201.39 57.05 200.46 58.08 199.63 59.29Q198.43 61.07 197.57 63.08C196.99 64.4 196.56 65.55 196.27 66.54C196.11 67.08 195.97 67.42 195.84 67.55C195.71 67.68 195.57 67.74 195.41 67.74C195.06 67.74 194.9 67.4 194.93 66.73C194.93 66.44 194.94 66.09 194.98 65.68C195.01 65.26 195.04 64.81 195.07 64.33C195.07 63.85 195.09 63.37 195.12 62.89C195.15 62.38 195.17 61.92 195.17 61.5C195.17 61.08 195.16 60.64 195.16 60.18C195.06 60.35 194.95 60.52 194.84 60.68C193.2 63.12 191.56 64.92 189.89 66.11C188.23 67.29 186.68 67.88 185.24 67.88C183.41 67.88 182.02 67.02 181.06 65.29C179.94 66.41 178.68 67.26 177.27 67.83C175.89 68.41 174.53 68.7 173.19 68.7C172.39 68.7 171.62 68.59 170.88 68.36C170.18 68.14 169.57 67.8 169.06 67.36C168.52 66.87 168.08 66.28 167.76 65.58C167.44 64.84 167.28 64 167.28 63.04Q167.28 61.31 168.1 59.53C168.61 58.32 169.33 57.23 170.26 56.27C171.22 55.28 172.34 54.46 173.62 53.82C174.9 53.18 176.29 52.86 177.8 52.86C179.01 52.86 179.96 53.04 180.63 53.39C181.3 53.71 181.64 54.01 181.64 54.3C181.64 54.43 181.57 54.52 181.44 54.59C181.32 54.65 181.2 54.68 181.11 54.68Q181.06 54.64 181.01 54.64L180.96 54.64C180.58 54.28 180.15 54.01 179.67 53.82C179.19 53.6 178.48 53.48 177.56 53.48Q176.04 53.48 174.75 54.02Q174.44 54.14 174.15 54.3C173.16 54.81 172.31 55.5 171.6 56.36C170.9 57.2 170.36 58.12 169.97 59.15C169.59 60.17 169.4 61.18 169.4 62.17C169.4 64.09 169.84 65.48 170.74 66.35C171.64 67.21 172.76 67.64 174.1 67.64C175.19 67.64 176.32 67.37 177.51 66.83C178.69 66.28 179.75 65.51 180.68 64.52Q179.91 62.8 179.91 60.01Q179.91 58.19 180.58 56.84Q181.03 55.95 181.73 55.65Q182.08 55.5 182.5 55.5C183.65 55.5 184.23 56.17 184.23 57.52C184.23 58.86 184.04 60.08 183.65 61.16C183.27 62.22 182.76 63.18 182.12 64.04Q183 65.68 184.33 66.24Q185.03 66.54 185.86 66.54C187.08 66.54 188.37 66.03 189.75 65C191.16 63.98 192.53 62.49 193.88 60.54C194.2 60.06 194.48 59.56 194.74 59.05L195.12 58.28C195.11 57.73 195.09 57.15 195.07 56.56C195.01 54.67 194.93 52.73 194.83 50.75Q194.69 47.72 194.59 44.75Q194.5 41.77 194.5 39.28C194.5 37.96 194.59 36.7 194.78 35.48Q195.07 33.61 195.7 32.22C196.11 31.26 196.64 30.51 197.28 29.96C197.92 29.39 198.67 29.1 199.54 29.1Q200.88 29.1 201.79 29.58C202.43 29.87 202.94 30.3 203.33 30.88C203.71 31.42 203.98 32.09 204.14 32.89C204.34 33.66 204.43 34.51 204.43 35.43Q204.43 37.84 203.76 40.72C203.31 42.6 202.72 44.51 201.98 46.43C201.25 48.35 200.4 50.2 199.44 52C198.51 53.76 197.55 55.29 196.56 56.6Q196.66 58.04 196.66 59.58C196.69 60.6 196.74 61.69 196.8 62.84C197.6 61.12 198.48 59.63 199.44 58.38C199.86 57.84 200.32 57.31 200.83 56.8C201.38 56.25 201.94 55.77 202.51 55.36C203.12 54.94 203.76 54.6 204.43 54.35C205.14 54.09 205.87 53.96 206.64 53.96C207.86 53.96 208.91 54.27 209.81 54.88C210.7 55.48 211.15 56.46 211.15 57.8C211.15 59.08 210.83 60.17 210.19 61.07C209.58 61.96 208.82 62.72 207.89 63.32C206.96 63.9 205.97 64.33 204.91 64.62C203.86 64.91 202.9 65.08 202.03 65.15C201.97 65.15 201.94 65.16 201.94 65.19C201.94 65.26 201.98 65.36 202.08 65.48C202.72 66.22 203.44 66.75 204.24 67.07Q204.82 67.3 205.42 67.42Q206.06 67.55 206.74 67.55C207.79 67.55 208.86 67.36 209.95 66.97C211.04 66.56 212.08 66.03 213.07 65.39C214.06 64.72 214.98 63.96 215.81 63.13C216.67 62.27 217.38 61.4 217.92 60.54C218.24 60.06 218.53 59.56 218.78 59.05L219.55 57.52L219.56 57.52C219.63 57.04 219.74 56.56 219.89 56.08C220.17 55.12 220.56 54.25 221.04 53.48Q221.81 52.33 222.77 51.61C223.44 51.13 224.14 50.89 224.88 50.89Q226.36 50.89 227.18 51.63Q227.34 51.78 227.47 51.95C228.01 52.62 228.29 53.48 228.29 54.54Q228.29 56.7 226.94 59.24C226.08 60.91 224.83 62.46 223.2 63.9C224.41 65.28 225.98 65.96 227.9 65.96C229.34 65.96 230.85 65.53 232.41 64.67Q234.77 63.32 236.83 60.54C237.18 60.09 237.47 59.61 237.69 59.1C237.95 58.56 238.21 58.03 238.46 57.52L239.37 57.76C239.15 58.24 238.91 58.73 238.65 59.24C238.43 59.72 238.14 60.2 237.79 60.68C236.22 62.92 234.43 64.62 232.41 65.77C230.43 66.89 228.53 67.45 226.7 67.45C225.68 67.45 224.72 67.28 223.82 66.92C222.96 66.57 222.21 66.04 221.57 65.34C220.93 64.64 220.41 63.76 220.03 62.7Q219.57 61.43 219.48 59.78ZM72.05 31.93C72.66 33.02 72.96 34.48 72.96 36.3C72.96 37.74 72.79 39.31 72.43 41C72.11 42.7 71.65 44.41 71.04 46.14C70.47 47.84 69.78 49.5 68.98 51.13C68.18 52.73 67.31 54.16 66.39 55.4C66.32 53.9 66.26 52.43 66.19 50.99C66.13 49.55 66.07 48.06 66 46.52C65.97 44.99 65.94 43.36 65.91 41.63C65.87 39.9 65.86 37.98 65.86 35.87C65.86 35.1 65.94 34.38 66.1 33.71C66.26 33.04 66.48 32.44 66.77 31.93C67.06 31.42 67.39 31.02 67.78 30.73C68.19 30.41 68.64 30.25 69.12 30.25C70.5 30.25 71.47 30.81 72.05 31.93ZM202.18 31.93C202.78 33.02 203.09 34.48 203.09 36.3C203.09 37.74 202.91 39.31 202.56 41C202.24 42.7 201.78 44.41 201.17 46.14C200.59 47.84 199.9 49.5 199.1 51.13C198.3 52.73 197.44 54.16 196.51 55.4C196.45 53.9 196.38 52.43 196.32 50.99C196.26 49.55 196.19 48.06 196.13 46.52Q196.08 44.22 196.03 41.63C196 39.9 195.98 37.98 195.98 35.87C195.98 35.1 196.06 34.38 196.22 33.71C196.38 33.04 196.61 32.44 196.9 31.93C197.18 31.42 197.52 31.02 197.9 30.73C198.32 30.41 198.77 30.25 199.25 30.25C200.62 30.25 201.6 30.81 202.18 31.93ZM139.27 66.44C139.33 66.25 139.36 65.93 139.36 65.48C139.36 63.18 139.33 60.73 139.27 58.14C139.23 55.55 139.19 52.91 139.12 50.22L139.03 42.16C138.99 39.43 138.98 36.8 138.98 34.24C138.98 34.01 138.9 33.82 138.74 33.66C138.61 33.5 138.42 33.42 138.16 33.42C137.94 33.48 137.75 33.56 137.59 33.66C137.43 33.75 137.35 33.93 137.35 34.19C137.35 34.41 137.36 35.31 137.39 36.88Q137.44 39.23 137.49 43.26C137.55 45.92 137.6 49.07 137.63 52.72C137.7 56.36 137.75 60.4 137.78 64.81C137.78 66.16 138.1 66.8 138.74 66.73C139.03 66.73 139.2 66.64 139.27 66.44ZM17.85 42.78C18.11 44.09 18.24 45.74 18.24 47.72C18.24 49.55 18.12 51.55 17.9 53.72C17.68 55.87 17.34 57.96 16.89 60.01C16.25 58.06 15.8 56.04 15.55 53.96C15.29 51.85 15.16 49.88 15.16 48.06Q15.16 46.52 15.26 45.23C15.36 44.33 15.47 43.56 15.6 42.92C15.76 42.25 15.95 41.74 16.17 41.39C16.4 41 16.64 40.81 16.89 40.81Q16.92 40.81 16.95 40.82Q17.53 40.9 17.85 42.78ZM147.43 46.04C148.51 45.79 149.65 45.66 150.83 45.66L151.41 45.66C150.29 46.84 149.03 47.8 147.62 48.54C146.24 49.28 144.79 49.64 143.25 49.64C142.35 49.64 141.91 49.45 141.91 49.07C141.91 48.78 142.15 48.44 142.63 48.06C143.14 47.68 143.79 47.31 144.59 46.96Q145.84 46.43 147.43 46.04ZM96.43 52.67C96.88 53.21 97.1 53.92 97.1 54.78C97.1 55.45 96.99 56.17 96.77 56.94C96.54 57.71 96.22 58.48 95.81 59.24C95.42 60.01 94.96 60.75 94.42 61.45C93.87 62.16 93.26 62.78 92.59 63.32C92.08 62.62 91.68 61.8 91.39 60.88C91.14 59.92 91.01 58.83 91.01 57.61C91.01 56.84 91.09 56.11 91.25 55.4C91.41 54.7 91.63 54.09 91.92 53.58C92.21 53.04 92.56 52.6 92.98 52.28C93.39 51.96 93.86 51.8 94.37 51.8C95.33 51.8 96.02 52.09 96.43 52.67ZM226.56 52.67C227.01 53.21 227.23 53.92 227.23 54.78C227.23 55.45 227.12 56.17 226.89 56.94C226.67 57.71 226.35 58.48 225.93 59.24C225.55 60.01 225.09 60.75 224.54 61.45C224 62.16 223.39 62.78 222.72 63.32C222.21 62.62 221.81 61.8 221.52 60.88C221.26 59.92 221.13 58.83 221.13 57.61Q221.13 56.46 221.37 55.4C221.53 54.7 221.76 54.09 222.05 53.58C222.33 53.04 222.69 52.6 223.1 52.28C223.52 51.96 223.98 51.8 224.49 51.8C225.45 51.8 226.14 52.09 226.56 52.67ZM53.09 56.65C53.25 56.94 53.33 57.32 53.33 57.8C53.33 58.83 53.17 59.8 52.85 60.73C52.57 61.66 52.15 62.49 51.61 63.23Q50.84 61.5 50.69 58.96C50.66 58.16 50.79 57.5 51.08 56.99C51.37 56.44 51.78 56.17 52.33 56.17C52.68 56.17 52.93 56.33 53.09 56.65ZM183.22 56.65C183.38 56.94 183.46 57.32 183.46 57.8C183.46 58.83 183.3 59.8 182.98 60.73C182.69 61.66 182.28 62.49 181.73 63.23Q180.96 61.5 180.82 58.96C180.79 58.16 180.92 57.5 181.2 56.99Q181.47 56.49 181.88 56.29Q182.14 56.17 182.45 56.17C182.8 56.17 183.06 56.33 183.22 56.65Z" fill="#FFF9F4" fill-opacity="1.000000" fill-rule="evenodd"/>
</svg>
