<svg width="60.000000" height="60.000000" viewBox="0 0 60 60" fill="none" xmlns="http://www.w3.org/2000/svg" xmlns:xlink="http://www.w3.org/1999/xlink">
	<desc>
			Created with Pixso.
	</desc>
	<defs>
		<clipPath id="clip41_193">
			<rect id="solar:chef-hat-heart-line-duotone" width="24.000000" height="24.000000" transform="translate(17.500000 18.000000)" fill="white" fill-opacity="0"/>
		</clipPath>
	</defs>
	<circle id="Ellipse 3" cx="29.500000" cy="30.000000" r="29.500000" stroke="#312C27" stroke-opacity="1.000000" stroke-width="1.000000"/>
	<rect id="solar:chef-hat-heart-line-duotone" width="24.000000" height="24.000000" transform="translate(17.500000 18.000000)" fill="#FFFFFF" fill-opacity="0"/>
	<g clip-path="url(#clip41_193)">
		<path id="Vector" d="M22.5 32.58L23.25 32.58C23.25 32.43 23.2 32.29 23.12 32.17C23.04 32.05 22.93 31.95 22.79 31.89L22.5 32.58ZM36.5 32.58L36.2 31.89C36.06 31.95 35.95 32.05 35.87 32.17C35.79 32.29 35.75 32.43 35.75 32.58L36.5 32.58ZM33.25 25C33.25 25.19 33.32 25.38 33.46 25.53C33.61 25.67 33.8 25.75 34 25.75C34.19 25.75 34.38 25.67 34.53 25.53C34.67 25.38 34.75 25.19 34.75 25L33.25 25ZM24.25 25C24.25 25.19 24.32 25.38 24.46 25.53C24.61 25.67 24.8 25.75 25 25.75C25.19 25.75 25.38 25.67 25.53 25.53C25.67 25.38 25.75 25.19 25.75 25L24.25 25ZM24.5 22.25C22.97 22.25 21.51 22.85 20.43 23.93C19.35 25.01 18.75 26.47 18.75 28L20.25 28C20.25 26.87 20.69 25.79 21.49 24.99C22.29 24.19 23.37 23.75 24.5 23.75L24.5 22.25ZM34.5 23.75C35.62 23.75 36.7 24.19 37.5 24.99C38.3 25.79 38.75 26.87 38.75 28L40.25 28C40.25 26.47 39.64 25.01 38.56 23.93C37.48 22.85 36.02 22.25 34.5 22.25L34.5 23.75ZM32.5 39.25L26.5 39.25L26.5 40.75L32.5 40.75L32.5 39.25ZM26.5 39.25C25.53 39.25 24.88 39.24 24.4 39.18C23.94 39.12 23.74 39.01 23.61 38.88L22.55 39.94C23.01 40.4 23.57 40.58 24.2 40.66C24.81 40.75 25.57 40.75 26.5 40.75L26.5 39.25ZM21.75 36C21.75 36.92 21.74 37.68 21.83 38.29C21.91 38.92 22.1 39.48 22.55 39.94L23.61 38.88C23.48 38.75 23.37 38.55 23.31 38.09C23.25 37.61 23.25 36.96 23.25 36L21.75 36ZM35.75 36C35.75 36.96 35.74 37.61 35.68 38.09C35.62 38.55 35.51 38.75 35.38 38.88L36.44 39.94C36.89 39.48 37.08 38.92 37.16 38.29C37.25 37.68 37.25 36.92 37.25 36L35.75 36ZM32.5 40.75C33.42 40.75 34.18 40.75 34.79 40.66C35.42 40.58 35.99 40.4 36.44 39.94L35.38 38.88C35.25 39.01 35.05 39.12 34.59 39.18C34.11 39.24 33.46 39.25 32.5 39.25L32.5 40.75ZM24.5 23.75C24.71 23.75 24.92 23.76 25.12 23.79L25.34 22.31C25.06 22.27 24.78 22.25 24.5 22.25L24.5 23.75ZM29.5 19.25C28.4 19.25 27.33 19.59 26.44 20.23C25.54 20.87 24.87 21.77 24.52 22.81L25.94 23.29C26.19 22.55 26.67 21.9 27.31 21.45C27.95 20.99 28.71 20.75 29.5 20.75L29.5 19.25ZM24.52 22.81C24.34 23.35 24.24 23.92 24.25 24.5L25.75 24.5C25.75 24.07 25.81 23.67 25.94 23.29L24.52 22.81ZM34.5 22.25C34.21 22.25 33.93 22.27 33.65 22.31L33.87 23.79C34.08 23.76 34.29 23.75 34.5 23.75L34.5 22.25ZM29.5 20.75C30.28 20.75 31.04 20.99 31.68 21.45C32.32 21.9 32.79 22.55 33.05 23.29L34.47 22.81C34.11 21.77 33.45 20.87 32.55 20.23C31.66 19.59 30.59 19.25 29.5 19.25L29.5 20.75ZM33.05 23.29C33.18 23.67 33.25 24.07 33.25 24.5L34.75 24.5C34.75 23.91 34.65 23.34 34.47 22.81L33.05 23.29L33.05 23.29ZM23.25 36L23.25 32.58L21.75 32.58L21.75 36L23.25 36ZM22.79 31.89C22.04 31.56 21.39 31.02 20.94 30.32C20.49 29.63 20.25 28.82 20.25 28L18.75 28C18.75 29.11 19.07 30.21 19.68 31.14C20.3 32.08 21.17 32.82 22.2 33.27L22.79 31.89ZM35.75 32.58L35.75 36L37.25 36L37.25 32.58L35.75 32.58ZM38.75 28C38.75 28.82 38.5 29.63 38.05 30.32C37.6 31.02 36.95 31.56 36.2 31.89L36.79 33.27C37.82 32.82 38.69 32.08 39.31 31.14C39.92 30.21 40.25 29.11 40.25 28L38.75 28ZM33.25 24.5L33.25 25L34.75 25L34.75 24.5L33.25 24.5ZM24.25 24.5L24.25 25L25.75 25L25.75 24.5L24.25 24.5Z" fill="#1F1711" fill-opacity="1.000000" fill-rule="nonzero"/>
		<g opacity="0.700000">
			<path id="Vector" d="M29.5 27.99L28.98 28.53C29.12 28.67 29.3 28.74 29.5 28.74C29.69 28.74 29.87 28.67 30.01 28.53L29.5 27.99ZM28.98 31.06C28.56 30.75 28.1 30.37 27.75 29.97C27.39 29.54 27.25 29.21 27.25 29L25.75 29C25.75 29.77 26.19 30.45 26.62 30.95C27.07 31.47 27.63 31.93 28.09 32.27L28.98 31.06ZM27.25 29C27.25 28.42 27.51 28.17 27.74 28.09C27.99 28 28.45 28.03 28.98 28.53L30.01 27.45C29.19 26.66 28.15 26.35 27.24 26.67C26.31 27 25.75 27.9 25.75 29L27.25 29ZM30.89 32.27C31.35 31.93 31.92 31.47 32.37 30.95C32.8 30.45 33.25 29.77 33.25 29L31.75 29C31.75 29.21 31.6 29.54 31.24 29.97C30.89 30.37 30.43 30.75 30.01 31.06L30.9 32.27L30.89 32.27ZM33.25 29C33.25 27.9 32.68 27 31.75 26.67C30.84 26.35 29.8 26.66 28.98 27.45L30.01 28.53C30.54 28.03 31 28 31.25 28.09C31.48 28.17 31.75 28.42 31.75 29L33.25 29ZM28.1 32.27C28.46 32.54 28.88 32.88 29.5 32.88L29.5 31.38C29.47 31.38 29.46 31.38 29.4 31.35C29.26 31.26 29.11 31.16 28.98 31.06L28.09 32.27L28.1 32.27ZM30.01 31.06C29.88 31.16 29.73 31.26 29.59 31.35C29.54 31.38 29.52 31.38 29.5 31.38L29.5 32.88C30.11 32.88 30.53 32.54 30.89 32.27L30.01 31.06Z" fill="#1F1711" fill-opacity="1.000000" fill-rule="nonzero"/>
		</g>
		<g opacity="0.700000">
			<path id="Vector" d="M22.5 36L36.5 36" stroke="#1F1711" stroke-opacity="1.000000" stroke-width="1.500000" stroke-linejoin="round" stroke-linecap="round"/>
		</g>
	</g>
</svg>
