<svg width="45.000000" height="45.000000" viewBox="0 0 45 45" fill="none" xmlns="http://www.w3.org/2000/svg" xmlns:xlink="http://www.w3.org/1999/xlink">
	<desc>
			Created with Pixso.
	</desc>
	<defs>
		<clipPath id="clip53_80">
			<rect id="circum:gift" width="44.459999" height="44.459999" transform="translate(-0.229980 -0.230469)" fill="white" fill-opacity="0"/>
		</clipPath>
	</defs>
	<rect id="circum:gift" width="44.459999" height="44.459999" transform="translate(-0.229980 -0.230469)" fill="#FFFFFF" fill-opacity="0"/>
	<g clip-path="url(#clip53_80)">
		<path id="Vector" d="M35.77 10.08L31.36 10.08C31.53 9.45 31.53 8.8 31.37 8.17C31.2 7.55 30.87 6.98 30.41 6.52C29.71 5.84 28.77 5.45 27.79 5.45C26.81 5.45 25.87 5.84 25.17 6.52L22 9.71L18.83 6.52C18.48 6.18 18.07 5.9 17.62 5.72C17.17 5.53 16.69 5.44 16.21 5.44C15.72 5.44 15.24 5.53 14.79 5.72C14.34 5.9 13.93 6.18 13.58 6.52C13.13 6.98 12.8 7.55 12.63 8.17C12.47 8.8 12.47 9.45 12.64 10.08L8.22 10.08C7.48 10.08 6.78 10.37 6.26 10.89C5.74 11.41 5.44 12.12 5.44 12.86L5.44 14.71C5.44 15.26 5.61 15.8 5.92 16.25C6.23 16.71 6.66 17.06 7.18 17.27L7.18 33.92C7.18 35.15 7.67 36.32 8.54 37.19C9.4 38.06 10.58 38.55 11.81 38.55L32.18 38.55C33.41 38.55 34.59 38.06 35.46 37.2C36.33 36.33 36.82 35.15 36.82 33.92L36.82 17.29C37.33 17.08 37.77 16.72 38.08 16.26C38.39 15.8 38.55 15.26 38.56 14.71L38.56 12.86C38.56 12.49 38.48 12.13 38.34 11.79C38.2 11.45 38 11.15 37.74 10.89C37.48 10.63 37.17 10.43 36.83 10.29C36.5 10.15 36.13 10.08 35.77 10.08ZM14.89 7.84C15.24 7.49 15.71 7.3 16.2 7.3C16.69 7.3 17.16 7.49 17.5 7.84L19.74 10.08L14.61 10.08C14.4 9.73 14.31 9.32 14.36 8.91C14.41 8.5 14.6 8.12 14.89 7.84ZM20.14 36.7L11.81 36.7C11.07 36.7 10.36 36.41 9.84 35.89C9.32 35.36 9.03 34.66 9.03 33.92L9.03 17.49L20.14 17.49L20.14 36.7ZM20.14 15.64L8.22 15.64C7.98 15.64 7.74 15.54 7.57 15.37C7.39 15.19 7.3 14.96 7.3 14.71L7.3 12.86C7.3 12.61 7.39 12.38 7.57 12.2C7.74 12.03 7.98 11.93 8.22 11.93L20.14 11.93L20.14 15.64ZM26.5 7.84C26.82 7.52 27.24 7.33 27.69 7.3C28.14 7.27 28.58 7.41 28.93 7.68C29.29 7.96 29.53 8.35 29.62 8.79C29.71 9.23 29.63 9.69 29.41 10.08L24.26 10.08L26.5 7.84ZM34.96 33.92C34.96 34.66 34.67 35.36 34.15 35.89C33.63 36.41 32.92 36.7 32.18 36.7L23.85 36.7L23.85 17.49L34.96 17.49L34.96 33.92ZM36.7 14.71C36.7 14.96 36.61 15.19 36.43 15.37C36.26 15.54 36.02 15.64 35.78 15.64L23.85 15.64L23.85 11.93L35.78 11.93C36.02 11.93 36.26 12.03 36.43 12.2C36.61 12.38 36.7 12.61 36.7 12.86L36.7 14.71Z" fill="#704174" fill-opacity="1.000000" fill-rule="evenodd"/>
	</g>
</svg>
