<svg width="173.000000" height="60.000000" viewBox="0 0 173 60" fill="none" xmlns="http://www.w3.org/2000/svg" xmlns:xlink="http://www.w3.org/1999/xlink">
	<desc>
			Created with Pixso.
	</desc>
	<defs/>
	<path id="&amp;" d="M111.16 59.49C111.34 59.36 111.43 59.22 111.43 59.08C111.43 58.94 111.27 58.78 110.95 58.6C105.35 56.21 100.32 53.11 95.87 49.3Q99.86 45.79 102.34 41.59Q104.41 38.13 104.8 34.5Q104.89 33.64 104.89 32.77C104.89 32.41 104.85 31.92 104.75 31.33Q104.71 30.76 104.58 30.22Q104.48 29.84 104.34 29.47C104.16 28.87 103.86 28.37 103.45 27.95C103.08 27.49 102.57 27.26 101.93 27.26C101.7 27.26 101.45 27.33 101.17 27.47C100.9 27.56 100.76 27.66 100.76 27.75C101.49 28.8 101.98 29.81 102.21 30.78C102.48 31.7 102.62 32.61 102.62 33.53C102.62 36.29 101.91 38.93 100.48 41.45C99.06 43.98 97.18 46.29 94.84 48.41Q88.36 42.83 83.82 36.42Q79.34 29.95 77.07 23.68C78.45 22.21 79.76 20.79 81 19.41C82.28 17.99 83.38 16.64 84.3 15.35C85.27 14.02 86.02 12.73 86.57 11.5C87.17 10.26 87.47 9.06 87.47 7.91C87.47 6.08 86.96 4.77 85.95 3.99C84.94 3.16 83.82 2.75 82.58 2.75C81.52 2.75 80.4 3.05 79.21 3.64Q77.48 4.47 76.04 5.99C75.07 7 74.27 8.21 73.63 9.64C73.03 11.06 72.73 12.62 72.73 14.32Q72.73 18.66 74.73 24.03L69.22 29.54Q66.47 32.36 64.19 35.32Q61.92 38.28 60.47 41.38C59.51 43.4 59.03 45.47 59.03 47.58Q59.03 50.54 60.06 52.74Q60.79 54.4 61.94 55.67Q62.32 56.09 62.75 56.46Q62.8 56.51 62.85 56.55Q64.54 57.93 66.81 58.6Q69.15 59.36 71.77 59.36Q74.45 59.36 77.35 58.74C79.32 58.32 81.27 57.73 83.2 56.94Q86.16 55.77 88.98 54.12C90.87 53.02 92.68 51.8 94.42 50.47C96.95 52.58 99.54 54.44 102.21 56.05Q106.2 58.39 110.33 59.7C110.7 59.7 110.97 59.63 111.16 59.49ZM83.82 5.37Q84.92 6.4 84.92 8.81C84.92 9.87 84.69 10.94 84.23 12.05C83.82 13.1 83.22 14.2 82.44 15.35C81.71 16.45 80.83 17.58 79.83 18.73C78.82 19.87 77.74 21.04 76.59 22.24Q75.14 17.83 75.14 13.91Q75.14 11.77 75.76 9.98Q76.38 8.19 77.28 6.95C77.92 6.08 78.61 5.41 79.34 4.95C80.12 4.49 80.86 4.26 81.55 4.26C82.37 4.26 83.13 4.63 83.82 5.37ZM87.74 44.21Q90.5 47.1 93.46 49.65C90.57 52.03 87.42 53.94 84.03 55.36Q78.93 57.5 74.38 57.5C72.87 57.5 71.4 57.29 69.98 56.88C68.55 56.46 67.29 55.8 66.19 54.88C65.09 53.96 64.22 52.79 63.57 51.37C62.88 49.9 62.54 48.15 62.54 46.13Q62.54 43.59 63.71 41.04C64.45 39.29 65.41 37.57 66.6 35.87Q68.39 33.26 70.67 30.71Q73.01 28.09 75.35 25.54Q76.66 28.64 78.52 31.88C79.8 33.99 81.2 36.08 82.72 38.15Q85.06 41.24 87.74 44.21Z" fill="#FFA55C" fill-opacity="1.000000" fill-rule="evenodd"/>
	<path id="Wake Bake" d="M27.3 19.02C27.4 18.95 27.44 18.86 27.44 18.74C27.44 18.61 27.36 18.47 27.2 18.33C27.04 18.17 26.88 18.08 26.71 18.08C26.16 18.08 25.63 18.39 25.12 18.99C24.63 19.57 24.19 20.28 23.8 21.14C23.43 21.97 23.13 22.86 22.9 23.81C22.69 24.76 22.58 25.59 22.58 26.31Q22.58 27.8 22.69 29.57C22.78 30.73 22.87 31.93 22.97 33.18C23.06 34.4 23.14 35.64 23.21 36.89Q23.35 38.77 23.35 40.54C23.35 41.85 23.28 43.09 23.14 44.25C23 45.38 22.75 46.39 22.38 47.27Q21.82 48.55 20.85 49.28C20.2 49.79 19.37 50.04 18.35 50.04Q17.44 50.04 16.64 49.74Q16.47 49.67 16.3 49.59C15.7 49.31 15.15 48.92 14.64 48.41C14.15 47.9 13.71 47.31 13.32 46.64C12.93 45.95 12.58 45.2 12.28 44.39Q12.94 41.99 13.25 39.49C13.46 37.81 13.56 36.2 13.56 34.67Q13.56 33.25 13.42 32.03C13.35 31.2 13.24 30.48 13.08 29.88C12.94 29.28 12.75 28.81 12.52 28.46C12.31 28.11 12.07 27.94 11.79 27.94Q11.72 27.94 11.66 27.95Q11.22 28.04 10.89 28.67C10.64 29.15 10.43 29.79 10.27 30.58C10.1 31.36 9.98 32.25 9.88 33.25C9.82 34.24 9.78 35.25 9.78 36.27Q9.78 38.35 10.16 40.81C10.42 42.46 10.81 44 11.34 45.46C11.09 46.25 10.8 46.98 10.47 47.65C10.17 48.32 9.83 48.9 9.43 49.38C9.04 49.89 8.61 50.29 8.15 50.56C7.69 50.84 7.18 50.98 6.62 50.98Q5.89 50.98 5.28 50.71Q4.96 50.57 4.68 50.35Q3.85 49.76 3.22 48.76C2.83 48.09 2.49 47.31 2.22 46.43Q1.8 45.12 1.56 43.73C1.4 42.78 1.28 41.83 1.21 40.88Q1.11 39.42 1.11 38.21Q1.11 36.65 1.18 35.02Q1.24 33.35 1.35 31.9C1.44 30.92 1.53 30.06 1.63 29.29C1.74 28.51 1.85 27.9 1.94 27.49Q2.29 26.1 2.46 25.61C2.57 25.27 2.63 25.02 2.63 24.89C2.63 24.77 2.57 24.7 2.46 24.68C2.34 24.63 2.2 24.61 2.04 24.61Q1.73 24.61 1.31 24.68C1.06 24.72 0.92 24.82 0.9 24.96C0.85 25.33 0.76 25.89 0.62 26.66Q0.41 27.8 0.2 29.4C0.06 30.44 -0.06 31.62 -0.18 32.94C-0.27 34.23 -0.29 35.61 -0.25 37.07Q-0.21 38.28 -0.18 39.88Q-0.11 41.44 0.06 43.1Q0.21 44.48 0.48 45.84Q0.53 46.08 0.59 46.33Q0.97 47.89 1.63 49.11Q2.29 50.35 3.29 51.12C3.99 51.63 4.83 51.88 5.82 51.88Q6.36 51.88 6.86 51.76Q7.27 51.65 7.66 51.47C8.24 51.19 8.77 50.79 9.26 50.29C9.75 49.78 10.19 49.18 10.58 48.48Q11.2 47.44 11.65 46.23Q12.11 47.27 12.66 48.13Q13.25 49 13.94 49.66C14.43 50.1 14.95 50.44 15.51 50.67C16.08 50.92 16.7 51.05 17.34 51.05C18.76 51.05 19.9 50.71 20.78 50.04C21.66 49.37 22.34 48.48 22.83 47.37Q23.59 45.71 23.83 43.59C24.02 42.18 24.11 40.72 24.11 39.22Q24.11 37.62 24.01 36.09C23.96 35.05 23.89 34.07 23.8 33.14C23.73 32.22 23.66 31.37 23.59 30.61C23.54 29.82 23.52 29.17 23.52 28.63C23.52 27.87 23.57 27.04 23.66 26.14C23.75 25.21 23.93 24.31 24.18 23.43C24.46 22.55 24.82 21.74 25.26 21C25.7 20.26 26.26 19.68 26.96 19.26C27.1 19.17 27.21 19.09 27.3 19.02ZM117.88 41.89C118.53 40.57 118.86 39.34 118.86 38.21C118.86 37.45 118.69 36.74 118.37 36.09C118.07 35.42 117.58 34.84 116.91 34.36C116.24 33.85 115.37 33.44 114.31 33.14C113.25 32.82 111.97 32.62 110.49 32.55C111.53 31.51 112.36 30.39 112.96 29.19C113.58 27.96 113.89 26.78 113.89 25.65C113.89 24.96 113.76 24.3 113.48 23.67C113.2 23.05 112.75 22.51 112.12 22.08C111.5 21.61 110.69 21.25 109.7 21C108.72 20.72 107.53 20.58 106.12 20.58Q104.66 20.58 102.37 20.93Q100.12 21.24 97.48 21.94C95.75 22.38 93.99 22.94 92.21 23.64C90.43 24.33 88.79 25.16 87.31 26.14C85.81 27.08 84.55 28.17 83.53 29.4C82.51 30.62 81.9 31.99 81.69 33.49Q81.69 34.19 81.8 34.5C81.84 34.68 81.91 34.78 82.01 34.78Q82.11 34.78 82.21 34.6C82.28 34.46 82.32 34.3 82.32 34.12C82.32 32.66 82.77 31.33 83.67 30.13C84.57 28.92 85.74 27.85 87.18 26.9C88.61 25.95 90.21 25.12 91.96 24.4C93.72 23.68 95.45 23.09 97.13 22.63C98.85 22.14 100.43 21.79 101.89 21.55C103.37 21.32 104.53 21.21 105.36 21.21C106.58 21.21 107.63 21.35 108.48 21.62C109.36 21.9 110.07 22.27 110.6 22.73C111.15 23.2 111.55 23.75 111.78 24.4C112.03 25.02 112.16 25.68 112.16 26.38C112.16 27.42 111.93 28.48 111.47 29.57C111 30.63 110.39 31.62 109.63 32.52L109.21 32.52C108.08 32.52 107.04 32.64 106.09 32.87C105.14 33.07 104.32 33.34 103.62 33.66C102.95 33.99 102.42 34.34 102.03 34.71C101.66 35.05 101.47 35.36 101.47 35.64C101.47 36.08 101.92 36.3 102.83 36.3C104.1 36.3 105.35 36 106.57 35.4C107.82 34.8 108.97 34.01 110.01 33.04C112.58 33.18 114.41 33.71 115.53 34.64C116.66 35.54 117.23 36.67 117.23 38.04C117.23 39.15 116.91 40.35 116.29 41.65C115.66 42.92 114.81 44.2 113.72 45.5Q112.09 47.41 109.9 49.18C108.47 50.38 106.93 51.43 105.29 52.33C103.67 53.26 101.99 54 100.26 54.55C98.55 55.11 96.87 55.39 95.23 55.39C95.02 55.39 94.77 55.36 94.5 55.32C94.22 55.29 93.95 55.24 93.7 55.14C93.44 55.05 93.22 54.92 93.04 54.76C92.88 54.62 92.8 54.43 92.8 54.17C92.8 53.8 93.11 53.4 93.73 52.96C94.36 52.54 95.11 52.16 95.99 51.81C96.87 51.47 97.77 51.18 98.7 50.94C99.62 50.71 100.38 50.6 100.99 50.6L101.44 50.6Q101.52 50.6 101.57 50.55Q101.61 50.51 101.61 50.42C101.61 50.35 101.58 50.29 101.51 50.22C101.44 50.15 101.33 50.11 101.19 50.11C101.01 50.11 100.65 50.16 100.12 50.25C99.59 50.37 98.96 50.52 98.24 50.7C97.55 50.89 96.82 51.11 96.06 51.36C95.3 51.62 94.59 51.9 93.94 52.23C93.29 52.55 92.76 52.9 92.35 53.27C91.93 53.66 91.72 54.07 91.72 54.48C91.72 54.78 91.84 55.02 92.07 55.18C92.3 55.36 92.58 55.49 92.9 55.56C93.22 55.65 93.57 55.71 93.94 55.73C94.34 55.76 94.69 55.77 95.02 55.77C96.96 55.77 98.9 55.49 100.85 54.94C102.79 54.4 104.64 53.67 106.4 52.75C108.16 51.82 109.8 50.76 111.33 49.56Q113.62 47.75 115.28 45.81C116.39 44.51 117.26 43.21 117.88 41.89ZM64.31 43.22C64.19 43.44 64.04 43.66 63.88 43.87C62.61 45.67 61.16 47.09 59.54 48.13Q57.11 49.66 54.72 49.66C53.73 49.66 52.78 49.43 51.88 48.97C50.97 48.53 50.17 47.81 49.48 46.82C49.39 46.7 49.34 46.6 49.34 46.5C49.34 46.3 49.48 46.19 49.76 46.19C49.78 46.19 49.86 46.21 50 46.26C50.19 46.26 50.39 46.33 50.63 46.47Q51.01 46.64 51.7 46.64C52.42 46.64 53.09 46.51 53.71 46.26C54.34 46.01 54.87 45.68 55.31 45.29C55.77 44.87 56.13 44.41 56.39 43.9C56.64 43.37 56.77 42.83 56.77 42.27C56.77 41.58 56.58 40.97 56.21 40.47C55.87 39.96 55.26 39.7 54.41 39.7C53.53 39.7 52.72 40.01 51.98 40.64C51.24 41.24 50.57 41.98 49.97 42.86C49.39 43.72 48.89 44.63 48.47 45.6Q47.85 47.02 47.54 48.1C47.42 48.49 47.32 48.74 47.23 48.83C47.13 48.92 47.03 48.97 46.91 48.97C46.66 48.97 46.54 48.72 46.57 48.24C46.57 48.03 46.58 47.78 46.6 47.47C46.62 47.17 46.65 46.85 46.67 46.5C46.67 46.16 46.68 45.81 46.71 45.46Q46.74 44.91 46.74 44.46C46.74 44.15 46.74 43.83 46.73 43.5C46.66 43.62 46.58 43.75 46.5 43.87C45.32 45.62 44.13 46.93 42.93 47.79C41.72 48.64 40.6 49.07 39.56 49.07Q38.73 49.07 38.06 48.74Q37.14 48.28 36.54 47.2C35.73 48.01 34.82 48.62 33.8 49.04C32.81 49.45 31.82 49.66 30.85 49.66C30.27 49.66 29.72 49.58 29.19 49.42C28.68 49.26 28.24 49.01 27.87 48.69C27.47 48.34 27.16 47.91 26.93 47.41Q26.58 46.61 26.58 45.57C26.58 44.73 26.78 43.89 27.17 43.03C27.54 42.15 28.06 41.37 28.73 40.67C29.43 39.96 30.24 39.37 31.16 38.9Q31.53 38.72 31.92 38.58Q32.99 38.21 34.18 38.21C35.06 38.21 35.74 38.34 36.23 38.59C36.72 38.82 36.96 39.04 36.96 39.25Q36.96 39.31 36.94 39.35Q36.9 39.42 36.82 39.46C36.73 39.51 36.65 39.53 36.58 39.53Q36.54 39.49 36.51 39.49L36.47 39.49C36.19 39.24 35.88 39.04 35.54 38.9C35.19 38.74 34.68 38.66 34.01 38.66C33.11 38.66 32.29 38.86 31.55 39.25C30.83 39.62 30.22 40.12 29.71 40.74C29.2 41.34 28.8 42.02 28.53 42.76Q28.11 43.87 28.11 44.94C28.11 46.33 28.43 47.34 29.08 47.96C29.73 48.59 30.54 48.9 31.51 48.9C32.3 48.9 33.12 48.7 33.97 48.31Q34.26 48.18 34.53 48.02Q35.48 47.48 36.26 46.64C35.89 45.81 35.71 44.72 35.71 43.38C35.71 42.5 35.87 41.74 36.19 41.09C36.52 40.44 36.98 40.12 37.58 40.12C38.42 40.12 38.83 40.6 38.83 41.58C38.83 42.55 38.69 43.43 38.42 44.21C38.14 44.98 37.77 45.67 37.31 46.3C37.95 47.5 38.86 48.1 40.01 48.1C40.89 48.1 41.83 47.73 42.82 46.99C43.84 46.25 44.83 45.17 45.81 43.76C46.04 43.42 46.25 43.06 46.43 42.69L46.71 42.13C46.7 41.73 46.69 41.31 46.67 40.88Q46.6 38.83 46.5 36.68C46.43 35.23 46.37 33.78 46.32 32.35Q46.25 30.19 46.25 28.39C46.25 27.44 46.32 26.53 46.46 25.65C46.6 24.75 46.82 23.96 47.12 23.29Q47.57 22.25 48.27 21.66C48.73 21.24 49.27 21.03 49.9 21.03C50.55 21.03 51.09 21.15 51.53 21.38C51.99 21.59 52.36 21.9 52.64 22.32C52.92 22.71 53.11 23.2 53.23 23.78C53.37 24.33 53.44 24.94 53.44 25.61C53.44 26.77 53.27 28.04 52.95 29.43Q52.47 31.48 51.67 33.56Q50.87 35.64 49.83 37.59C49.16 38.86 48.46 39.97 47.75 40.92C47.79 41.61 47.82 42.33 47.82 43.07C47.84 43.81 47.87 44.59 47.92 45.43C48.5 44.18 49.13 43.1 49.83 42.2Q50.28 41.61 50.83 41.06C51.23 40.66 51.63 40.32 52.05 40.01C52.49 39.71 52.95 39.47 53.44 39.29C53.95 39.1 54.48 39.01 55.03 39.01C55.91 39.01 56.68 39.23 57.32 39.67C57.97 40.11 58.29 40.81 58.29 41.78C58.29 42.71 58.06 43.5 57.6 44.14C57.16 44.79 56.61 45.34 55.93 45.77Q55.46 46.07 54.95 46.3Q54.39 46.55 53.78 46.71C53.02 46.92 52.33 47.05 51.7 47.09Q51.65 47.09 51.64 47.12Q51.63 47.12 51.63 47.13C51.63 47.17 51.67 47.24 51.74 47.34C52.2 47.87 52.72 48.25 53.3 48.48C53.88 48.71 54.48 48.83 55.1 48.83C55.87 48.83 56.64 48.69 57.43 48.41Q57.65 48.33 57.87 48.23Q58.81 47.83 59.68 47.27Q60.76 46.54 61.66 45.64C62.28 45.01 62.79 44.39 63.19 43.76C63.42 43.42 63.63 43.06 63.81 42.69L64.37 41.58L64.37 41.58Q64.45 41.06 64.61 40.54C64.82 39.84 65.09 39.22 65.44 38.66C65.81 38.11 66.23 37.66 66.69 37.31C67.18 36.96 67.69 36.79 68.22 36.79C69.07 36.79 69.7 37.04 70.09 37.55C70.48 38.04 70.68 38.66 70.68 39.42C70.68 40.47 70.36 41.6 69.71 42.83C69.08 44.03 68.18 45.15 67 46.19C67.88 47.19 69.02 47.68 70.4 47.68C71.44 47.68 72.53 47.37 73.67 46.75C74.8 46.1 75.86 45.1 76.86 43.76C77.11 43.44 77.32 43.09 77.48 42.72C77.67 42.33 77.85 41.95 78.04 41.58L78.7 41.75C78.53 42.1 78.36 42.46 78.18 42.83C78.01 43.17 77.81 43.52 77.55 43.87C76.42 45.49 75.12 46.71 73.67 47.54Q71.51 48.76 69.54 48.76C68.8 48.76 68.1 48.63 67.45 48.38C66.83 48.12 66.29 47.74 65.82 47.23C65.36 46.72 64.99 46.09 64.71 45.32C64.49 44.71 64.36 44.01 64.31 43.22ZM158.38 43.22Q158.19 43.56 157.95 43.87Q156.04 46.57 153.61 48.13C151.99 49.15 150.38 49.66 148.79 49.66C147.79 49.66 146.84 49.43 145.94 48.97C145.04 48.53 144.24 47.81 143.55 46.82C143.46 46.7 143.41 46.6 143.41 46.5C143.41 46.3 143.55 46.19 143.83 46.19Q143.86 46.19 144.07 46.26C144.25 46.26 144.46 46.33 144.69 46.47C144.95 46.58 145.31 46.64 145.77 46.64C146.49 46.64 147.16 46.51 147.78 46.26C148.41 46.01 148.94 45.68 149.38 45.29C149.84 44.87 150.2 44.41 150.45 43.9C150.71 43.37 150.83 42.83 150.83 42.27C150.83 41.58 150.65 40.97 150.28 40.47C149.93 39.96 149.33 39.7 148.48 39.7C147.6 39.7 146.79 40.01 146.05 40.64C145.31 41.24 144.64 41.98 144.03 42.86C143.46 43.72 142.96 44.63 142.54 45.6C142.13 46.55 141.81 47.38 141.6 48.1C141.49 48.49 141.38 48.74 141.29 48.83C141.2 48.92 141.1 48.97 140.98 48.97C140.73 48.97 140.61 48.72 140.63 48.24C140.63 48.03 140.64 47.78 140.67 47.47C140.69 47.17 140.71 46.85 140.74 46.5Q140.74 45.98 140.77 45.46Q140.81 44.91 140.81 44.46Q140.81 44 140.8 43.5Q140.69 43.68 140.57 43.87Q138.8 46.5 136.99 47.79C135.79 48.64 134.67 49.07 133.63 49.07C132.31 49.07 131.3 48.45 130.61 47.2C129.8 48.01 128.89 48.62 127.87 49.04C126.87 49.45 125.89 49.66 124.92 49.66C124.34 49.66 123.78 49.58 123.25 49.42C122.74 49.26 122.3 49.01 121.93 48.69C121.54 48.34 121.23 47.91 121 47.41Q120.65 46.61 120.65 45.57C120.65 44.73 120.85 43.89 121.24 43.03C121.61 42.15 122.13 41.37 122.8 40.67C123.5 39.96 124.31 39.37 125.23 38.9C126.16 38.44 127.16 38.21 128.25 38.21C129.13 38.21 129.81 38.34 130.3 38.59C130.78 38.82 131.03 39.04 131.03 39.25Q131.03 39.31 131 39.35Q130.97 39.42 130.89 39.46C130.79 39.51 130.71 39.53 130.64 39.53Q130.61 39.49 130.57 39.49L130.54 39.49C130.26 39.24 129.95 39.04 129.6 38.9C129.25 38.74 128.75 38.66 128.08 38.66C127.17 38.66 126.35 38.86 125.61 39.25C124.89 39.62 124.28 40.12 123.77 40.74C123.26 41.34 122.87 42.02 122.59 42.76Q122.18 43.87 122.18 44.94C122.18 46.33 122.5 47.34 123.15 47.96C123.8 48.59 124.61 48.9 125.58 48.9Q126.76 48.9 128.04 48.31C128.9 47.91 129.66 47.36 130.33 46.64C129.96 45.81 129.78 44.72 129.78 43.38C129.78 42.5 129.94 41.74 130.26 41.09C130.59 40.44 131.05 40.12 131.65 40.12C132.48 40.12 132.9 40.6 132.9 41.58Q132.9 43.03 132.48 44.21C132.2 44.98 131.83 45.67 131.37 46.3C132.02 47.5 132.92 48.1 134.08 48.1C134.96 48.1 135.89 47.73 136.89 46.99C137.91 46.25 138.9 45.17 139.87 43.76C140.1 43.42 140.31 43.06 140.5 42.69L140.77 42.13Q140.76 41.53 140.74 40.88C140.69 39.52 140.63 38.12 140.56 36.68Q140.46 34.5 140.39 32.35Q140.32 30.19 140.32 28.39Q140.32 26.97 140.53 25.65C140.67 24.75 140.89 23.96 141.19 23.29C141.49 22.6 141.87 22.05 142.33 21.66C142.8 21.24 143.34 21.03 143.96 21.03C144.61 21.03 145.16 21.15 145.6 21.38C146.06 21.59 146.43 21.9 146.71 22.32C146.98 22.71 147.18 23.2 147.3 23.78Q147.5 24.61 147.5 25.61Q147.5 27.35 147.02 29.43C146.69 30.8 146.27 32.17 145.73 33.56C145.2 34.95 144.59 36.29 143.89 37.59C143.22 38.86 142.53 39.97 141.81 40.92Q141.88 41.96 141.88 43.07C141.91 43.81 141.94 44.59 141.99 45.43C142.56 44.18 143.2 43.1 143.89 42.2C144.2 41.81 144.53 41.43 144.9 41.06Q145.49 40.47 146.12 40.01C146.56 39.71 147.02 39.47 147.5 39.29C148.01 39.1 148.54 39.01 149.1 39.01C149.98 39.01 150.74 39.23 151.39 39.67C152.04 40.11 152.36 40.81 152.36 41.78C152.36 42.71 152.13 43.5 151.67 44.14C151.23 44.79 150.67 45.34 150 45.77C149.33 46.19 148.61 46.5 147.85 46.71C147.09 46.92 146.39 47.05 145.77 47.09Q145.71 47.09 145.7 47.12Q145.7 47.12 145.7 47.13C145.7 47.17 145.73 47.24 145.8 47.34C146.27 47.87 146.79 48.25 147.36 48.48C147.94 48.71 148.54 48.83 149.17 48.83C149.93 48.83 150.71 48.69 151.49 48.41C152.28 48.11 153.03 47.73 153.75 47.27C154.47 46.78 155.13 46.24 155.73 45.64C156.35 45.01 156.86 44.39 157.25 43.76C157.49 43.42 157.69 43.06 157.88 42.69L158.43 41.58L158.44 41.58Q158.52 41.06 158.67 40.54C158.88 39.84 159.16 39.22 159.51 38.66C159.88 38.11 160.3 37.66 160.76 37.31C161.24 36.96 161.75 36.79 162.28 36.79C163.14 36.79 163.76 37.04 164.16 37.55C164.55 38.04 164.75 38.66 164.75 39.42Q164.75 40.99 163.78 42.83C163.15 44.03 162.25 45.15 161.07 46.19C161.95 47.19 163.08 47.68 164.47 47.68C165.51 47.68 166.6 47.37 167.73 46.75Q169.43 45.77 170.92 43.76Q171.23 43.37 171.45 42.94Q171.5 42.83 171.55 42.72C171.73 42.33 171.92 41.95 172.1 41.58L172.76 41.75Q172.52 42.27 172.24 42.83C172.08 43.17 171.87 43.52 171.62 43.87Q169.92 46.3 167.73 47.54Q165.58 48.76 163.6 48.76C162.86 48.76 162.17 48.63 161.52 48.38C160.9 48.12 160.35 47.74 159.89 47.23C159.43 46.72 159.06 46.09 158.78 45.32C158.56 44.71 158.42 44.01 158.38 43.22ZM51.81 23.08C52.25 23.87 52.47 24.92 52.47 26.24C52.47 27.28 52.34 28.41 52.08 29.64Q51.74 31.48 51.08 33.35C50.66 34.58 50.16 35.78 49.59 36.96Q48.72 38.7 47.71 40.05Q47.64 38.42 47.57 36.86Q47.5 35.3 47.43 33.63C47.41 32.52 47.39 31.34 47.36 30.09C47.34 28.84 47.33 27.45 47.33 25.93C47.33 25.37 47.39 24.85 47.5 24.37C47.62 23.88 47.78 23.45 47.99 23.08C48.2 22.71 48.44 22.42 48.72 22.21Q49.04 21.97 49.39 21.9Q49.54 21.87 49.69 21.87Q50.56 21.87 51.13 22.28Q51.54 22.57 51.81 23.08ZM145.87 23.08C146.31 23.87 146.53 24.92 146.53 26.24C146.53 27.28 146.4 28.41 146.15 29.64Q145.8 31.48 145.14 33.35C144.73 34.58 144.23 35.78 143.65 36.96C143.07 38.12 142.45 39.15 141.78 40.05Q141.71 38.42 141.64 36.86Q141.57 35.3 141.5 33.63C141.48 32.52 141.45 31.34 141.43 30.09C141.41 28.84 141.4 27.45 141.4 25.93C141.4 25.37 141.45 24.85 141.57 24.37C141.69 23.88 141.85 23.45 142.06 23.08C142.26 22.71 142.51 22.42 142.78 22.21C143.09 21.98 143.41 21.87 143.76 21.87C144.75 21.87 145.46 22.27 145.87 23.08ZM100.4 48.03C100.44 47.89 100.47 47.66 100.47 47.34Q100.47 44.84 100.4 42.03Q100.36 39.22 100.29 36.3L100.22 30.47Q100.19 27.52 100.19 24.75C100.19 24.59 100.13 24.45 100.01 24.33C99.92 24.22 99.78 24.16 99.6 24.16C99.44 24.2 99.3 24.26 99.18 24.33C99.07 24.4 99.01 24.53 99.01 24.71C99.01 24.87 99.02 25.52 99.04 26.66Q99.08 28.36 99.11 31.27Q99.18 34.15 99.22 38.11Q99.29 42.06 99.32 46.85C99.32 47.82 99.55 48.28 100.01 48.24C100.22 48.24 100.35 48.17 100.4 48.03ZM12.63 30.92C12.81 31.87 12.9 33.06 12.9 34.5C12.9 35.82 12.82 37.26 12.66 38.83C12.5 40.38 12.26 41.9 11.93 43.38Q11.24 41.26 10.96 39.01Q10.68 36.72 10.68 34.74Q10.68 33.63 10.75 32.69C10.82 32.05 10.9 31.49 11 31.03C11.11 30.54 11.25 30.17 11.41 29.92C11.57 29.64 11.75 29.5 11.93 29.5C12.23 29.5 12.46 29.98 12.63 30.92ZM106.3 33.28C107.08 33.1 107.9 33.01 108.76 33.01L109.18 33.01C108.37 33.86 107.45 34.56 106.43 35.09C105.44 35.62 104.39 35.89 103.28 35.89C102.63 35.89 102.3 35.75 102.3 35.47C102.3 35.26 102.48 35.02 102.83 34.74C103.2 34.46 103.67 34.2 104.25 33.94C104.85 33.69 105.53 33.47 106.3 33.28ZM69.43 38.07C69.76 38.46 69.92 38.97 69.92 39.6C69.92 40.08 69.84 40.6 69.67 41.16C69.51 41.71 69.28 42.27 68.98 42.83C68.7 43.38 68.37 43.91 67.97 44.42C67.58 44.93 67.14 45.38 66.66 45.77C66.29 45.27 66 44.68 65.79 44C65.6 43.31 65.51 42.52 65.51 41.65C65.51 41.09 65.57 40.56 65.68 40.05C65.8 39.54 65.96 39.1 66.17 38.73C66.38 38.34 66.63 38.03 66.93 37.79C67.23 37.56 67.57 37.45 67.94 37.45C68.63 37.45 69.13 37.66 69.43 38.07ZM163.5 38.07C163.82 38.46 163.98 38.97 163.98 39.6C163.98 40.08 163.9 40.6 163.74 41.16C163.58 41.71 163.35 42.27 163.05 42.83C162.77 43.38 162.43 43.91 162.04 44.42C161.65 44.93 161.21 45.38 160.72 45.77C160.35 45.27 160.06 44.68 159.86 44C159.67 43.31 159.58 42.52 159.58 41.65Q159.58 40.81 159.75 40.05C159.87 39.54 160.03 39.1 160.24 38.73C160.45 38.34 160.7 38.03 161 37.79Q161.25 37.6 161.54 37.51Q161.76 37.45 162.01 37.45C162.7 37.45 163.2 37.66 163.5 38.07ZM38.1 40.95C38.22 41.16 38.28 41.44 38.28 41.78C38.28 42.52 38.16 43.23 37.93 43.9C37.72 44.57 37.42 45.17 37.03 45.71C36.66 44.87 36.44 43.84 36.37 42.62C36.35 42.04 36.44 41.56 36.65 41.19C36.85 40.8 37.15 40.6 37.55 40.6C37.8 40.6 37.99 40.72 38.1 40.95ZM132.17 40.95C132.28 41.16 132.34 41.44 132.34 41.78Q132.34 42.76 132.07 43.66Q132.04 43.78 132 43.9C131.79 44.57 131.49 45.17 131.09 45.71C130.72 44.87 130.5 43.84 130.44 42.62C130.41 42.04 130.5 41.56 130.71 41.19C130.92 40.8 131.22 40.6 131.62 40.6Q131.8 40.6 131.94 40.69Q132.08 40.77 132.17 40.95Z" fill="#1F1711" fill-opacity="1.000000" fill-rule="evenodd"/>
</svg>
